# xmcd CD database file
#
# Track frame offsets:
#	150
#	14117
#	26670
#	38672
#	50087
#	63055
#	76177
#	87377
#	101062
#	113392
#	128160
#	139805
#	151812
#	165440
#	177802
#	189810
#	201925
#	217262
#	231550
#	246470
#
# Disc length: 3465 seconds
#
# Revision: 0
# Processed by: cddbd v1.5.1PL0 Copyright (c) Steve Scherf et al.
# Submitted via: CDex 1.51
#
DISCID=110d8714
DTITLE=Muggsy Spanier - 1931 And 1939 (Jazz Classics In Digital Stereo
DYEAR=1995
DGENRE=Jazz
TTITLE0=(i Want A) Big Butter And Egg Man
TTITLE1=Someday Sweetheart
TTITLE2=Eccentric
TTITLE3=That Da Da Strain
TTITLE4=At The Jazz Band Ball
TTITLE5=I Wish I Could Shimmy Like My Sister Kate
TTITLE6=Dippermouth Blues
TTITLE7=Livery Stable Blues
TTITLE8=Riverboat Shuffle
TTITLE9=Relaxin' At The Touro
TTITLE10=At Sundown
TTITLE11=Bluin' The Blues
TTITLE12=Lonesome Road
TTITLE13=Dinah
TTITLE14=(what Did I Do To Be So) Black And Blue
TTITLE15=Mandy Make Up Your Mind
TTITLE16=Egyptian Ella
TTITLE17=I'm Crazy About My Baby
TTITLE18=Dallas Blues
TTITLE19=Royal Garden Blues
EXTD=YEAR: 1995
EXTT0=
EXTT1=
EXTT2=
EXTT3=
EXTT4=
EXTT5=
EXTT6=
EXTT7=
EXTT8=
EXTT9=
EXTT10=
EXTT11=
EXTT12=
EXTT13=
EXTT14=
EXTT15=
EXTT16=
EXTT17=
EXTT18=
EXTT19=
PLAYORDER=
